<?xml version="1.0" encoding="UTF-8" standalone="no"?><!DOCTYPE svg PUBLIC "-//W3C//DTD SVG 1.1//EN" "http://www.w3.org/Graphics/SVG/1.1/DTD/svg11.dtd"><svg width="100%" height="100%" viewBox="0 0 96 96" version="1.1" xmlns="http://www.w3.org/2000/svg" xmlns:xlink="http://www.w3.org/1999/xlink" xml:space="preserve" xmlns:serif="http://www.serif.com/" style="fill-rule:evenodd;clip-rule:evenodd;stroke-linecap:round;stroke-linejoin:round;stroke-miterlimit:1.5;"><path d="M93,33l0,30c0,8.279 -6.721,15 -15,15l-60,0c-8.279,0 -15,-6.721 -15,-15l0,-30c0,-8.279 6.721,-15 15,-15l60,0c8.279,0 15,6.721 15,15Z" style="fill:#f00;"/><path d="M77.435,78l-59.05,0c-3.569,0 -12.274,-0.115 -15.588,-0.205c-6.611,0.411 -1.747,-3.573 -0.677,-7.186c0.737,-2.488 0.947,-4.832 0.947,-7.608l0,-30c0,-8.279 6.864,-15 15.318,-15l59.05,0c8.454,0 15.318,6.721 15.318,15l0,30c0,2.776 0.21,5.12 0.947,7.608c1.07,3.613 7.142,7.745 -0.677,7.186c-3.314,0.067 -12.018,0.205 -15.588,0.205Z" style="fill:#f00;stroke:#808080;stroke-width:4px;"/><path d="M35,30l0,36l30,-18l-30,-18Z" style="fill:#fff;fill-rule:nonzero;"/><g id="ellipses"><circle cx="64" cy="60" r="3" style="fill:#fff;"/><circle cx="72" cy="60" r="3" style="fill:#fff;"/><circle cx="80" cy="60" r="3" style="fill:#fff;"/></g></svg>